<svg width="26" height="26" viewBox="0 0 26 26" fill="none" xmlns="http://www.w3.org/2000/svg">
<g id="Group 2">
<path id="Vector" d="M22.3618 0.21814H3.61176C1.88832 0.21814 0.486755 1.6197 0.486755 3.34314V22.0931C0.486755 23.8166 1.88832 25.2181 3.61176 25.2181H22.3618C24.0852 25.2181 25.4868 23.8166 25.4868 22.0931V3.34314C25.4868 1.6197 24.0852 0.21814 22.3618 0.21814Z" fill="#1976D2"/>
<path id="Vector_2" d="M21.5805 12.7181H17.6743V9.59314C17.6743 8.73064 18.3743 8.81189 19.2368 8.81189H20.7993V4.90564H17.6743C15.0852 4.90564 12.9868 7.00408 12.9868 9.59314V12.7181H9.86176V16.6244H12.9868V25.2181H17.6743V16.6244H20.018L21.5805 12.7181Z" fill="#FAFAFA"/>
</g>
</svg>
