<svg width="19" height="18" viewBox="0 0 19 18" fill="none" xmlns="http://www.w3.org/2000/svg">
<path d="M17.1245 8.87724L10.3323 2.08857L9.87703 1.6333C9.77329 1.53025 9.63301 1.47241 9.48679 1.47241C9.34057 1.47241 9.20029 1.53025 9.09656 1.6333L1.8491 8.87724C1.7428 8.98312 1.6588 9.10922 1.60204 9.2481C1.54528 9.38698 1.51692 9.53582 1.51863 9.68584C1.52566 10.3046 2.0407 10.7985 2.65945 10.7985H3.40652V16.5237H15.5671V10.7985H16.33C16.6305 10.7985 16.9135 10.6808 17.1262 10.4681C17.231 10.3637 17.314 10.2395 17.3704 10.1028C17.4268 9.96616 17.4555 9.81964 17.455 9.67177C17.455 9.37294 17.3372 9.08994 17.1245 8.87724V8.87724ZM10.4712 15.2581H8.50242V11.6722H10.4712V15.2581ZM14.3014 9.53291V15.2581H11.5962V11.2503C11.5962 10.8618 11.2815 10.5472 10.893 10.5472H8.08054C7.69206 10.5472 7.37742 10.8618 7.37742 11.2503V15.2581H4.67214V9.53291H2.98464L9.48855 3.03427L9.8946 3.44033L15.9907 9.53291H14.3014Z" fill="#8C8C8C"/>
</svg>
