<svg width="26" height="26" viewBox="0 0 26 26" fill="none" xmlns="http://www.w3.org/2000/svg">
<g id="Group 1">
<path id="Vector" d="M17.6743 0.21814H8.29926C3.98519 0.21814 0.486755 3.71658 0.486755 8.03064V17.4056C0.486755 21.7197 3.98519 25.2181 8.29926 25.2181H17.6743C21.9883 25.2181 25.4868 21.7197 25.4868 17.4056V8.03064C25.4868 3.71658 21.9883 0.21814 17.6743 0.21814ZM23.143 17.4056C23.143 20.4213 20.6899 22.8744 17.6743 22.8744H8.29926C5.28363 22.8744 2.83051 20.4213 2.83051 17.4056V8.03064C2.83051 5.01501 5.28363 2.56189 8.29926 2.56189H17.6743C20.6899 2.56189 23.143 5.01501 23.143 8.03064V17.4056Z" fill="url(#paint0_linear_243_55)"/>
<path id="Vector_2" d="M12.9868 6.46814C9.53519 6.46814 6.73676 9.26658 6.73676 12.7181C6.73676 16.1697 9.53519 18.9681 12.9868 18.9681C16.4383 18.9681 19.2368 16.1697 19.2368 12.7181C19.2368 9.26658 16.4383 6.46814 12.9868 6.46814ZM12.9868 16.6244C10.8336 16.6244 9.08051 14.8713 9.08051 12.7181C9.08051 10.5635 10.8336 8.81189 12.9868 8.81189C15.1399 8.81189 16.893 10.5635 16.893 12.7181C16.893 14.8713 15.1399 16.6244 12.9868 16.6244Z" fill="url(#paint1_linear_243_55)"/>
<path id="Vector_3" d="M19.7056 6.83224C20.1655 6.83224 20.5384 6.45938 20.5384 5.99943C20.5384 5.53949 20.1655 5.16663 19.7056 5.16663C19.2456 5.16663 18.8727 5.53949 18.8727 5.99943C18.8727 6.45938 19.2456 6.83224 19.7056 6.83224Z" fill="url(#paint2_linear_243_55)"/>
</g>
<defs>
<linearGradient id="paint0_linear_243_55" x1="2.77527" y1="22.9298" x2="23.1982" y2="2.5065" gradientUnits="userSpaceOnUse">
<stop stop-color="#FFC107"/>
<stop offset="0.507" stop-color="#F44336"/>
<stop offset="0.99" stop-color="#9C27B0"/>
</linearGradient>
<linearGradient id="paint1_linear_243_55" x1="8.56746" y1="17.1374" x2="17.4061" y2="8.29884" gradientUnits="userSpaceOnUse">
<stop stop-color="#FFC107"/>
<stop offset="0.507" stop-color="#F44336"/>
<stop offset="0.99" stop-color="#9C27B0"/>
</linearGradient>
<linearGradient id="paint2_linear_243_55" x1="19.1167" y1="6.58842" x2="20.2944" y2="5.4106" gradientUnits="userSpaceOnUse">
<stop stop-color="#FFC107"/>
<stop offset="0.507" stop-color="#F44336"/>
<stop offset="0.99" stop-color="#9C27B0"/>
</linearGradient>
</defs>
</svg>
