<svg width="17" height="16" viewBox="0 0 17 16" fill="none" xmlns="http://www.w3.org/2000/svg">
<path d="M14.907 10.9672H5.60231L6.06949 10.0156L13.832 10.0016C14.0945 10.0016 14.3195 9.81406 14.3664 9.55469L15.4414 3.5375C15.4695 3.37969 15.4273 3.21719 15.3242 3.09375C15.2732 3.033 15.2096 2.98407 15.1379 2.95034C15.0661 2.91661 14.9879 2.8989 14.9086 2.89844L5.03356 2.86562L4.94918 2.46875C4.89606 2.21562 4.66793 2.03125 4.40856 2.03125H1.99449C1.84821 2.03125 1.70792 2.08936 1.60448 2.1928C1.50104 2.29624 1.44293 2.43653 1.44293 2.58281C1.44293 2.7291 1.50104 2.86939 1.60448 2.97283C1.70792 3.07626 1.84821 3.13438 1.99449 3.13438H3.96168L4.33043 4.8875L5.23824 9.28281L4.06949 11.1906C4.0088 11.2725 3.97224 11.3698 3.96396 11.4714C3.95567 11.573 3.97599 11.675 4.02262 11.7656C4.11637 11.9516 4.30543 12.0688 4.51481 12.0688H5.49606C5.28687 12.3466 5.17388 12.685 5.17418 13.0328C5.17418 13.9172 5.89293 14.6359 6.77731 14.6359C7.66168 14.6359 8.38043 13.9172 8.38043 13.0328C8.38043 12.6844 8.26481 12.3453 8.05856 12.0688H10.5757C10.3666 12.3466 10.2536 12.685 10.2539 13.0328C10.2539 13.9172 10.9726 14.6359 11.857 14.6359C12.7414 14.6359 13.4601 13.9172 13.4601 13.0328C13.4601 12.6844 13.3445 12.3453 13.1382 12.0688H14.9086C15.2117 12.0688 15.4601 11.8219 15.4601 11.5172C15.4592 11.3711 15.4005 11.2312 15.2969 11.1282C15.1933 11.0251 15.0531 10.9673 14.907 10.9672V10.9672ZM5.26324 3.95312L14.2601 3.98281L13.3789 8.91719L6.31168 8.92969L5.26324 3.95312ZM6.77731 13.5266C6.50543 13.5266 6.28356 13.3047 6.28356 13.0328C6.28356 12.7609 6.50543 12.5391 6.77731 12.5391C7.04918 12.5391 7.27106 12.7609 7.27106 13.0328C7.27106 13.1638 7.21904 13.2894 7.12644 13.3819C7.03384 13.4745 6.90826 13.5266 6.77731 13.5266V13.5266ZM11.857 13.5266C11.5851 13.5266 11.3632 13.3047 11.3632 13.0328C11.3632 12.7609 11.5851 12.5391 11.857 12.5391C12.1289 12.5391 12.3507 12.7609 12.3507 13.0328C12.3507 13.1638 12.2987 13.2894 12.2061 13.3819C12.1135 13.4745 11.9879 13.5266 11.857 13.5266V13.5266Z" fill="#8C8C8C"/>
</svg>
