<svg width="17" height="16" viewBox="0 0 17 16" fill="none" xmlns="http://www.w3.org/2000/svg">
<path d="M13.9012 11.9312C13.6064 11.2331 13.1787 10.5989 12.6418 10.0641C12.1065 9.52767 11.4725 9.10001 10.7746 8.80469C10.7684 8.80156 10.7621 8.8 10.7558 8.79688C11.7293 8.09375 12.3621 6.94844 12.3621 5.65625C12.3621 3.51562 10.6277 1.78125 8.4871 1.78125C6.34647 1.78125 4.6121 3.51562 4.6121 5.65625C4.6121 6.94844 5.24491 8.09375 6.21835 8.79844C6.2121 8.80156 6.20585 8.80312 6.1996 8.80625C5.4996 9.10156 4.87147 9.525 4.33241 10.0656C3.79602 10.6009 3.36836 11.235 3.07304 11.9328C2.78292 12.616 2.62645 13.3485 2.6121 14.0906C2.61168 14.1073 2.61461 14.1239 2.6207 14.1394C2.6268 14.1549 2.63594 14.1691 2.64759 14.181C2.65924 14.193 2.67316 14.2025 2.68853 14.2089C2.7039 14.2154 2.72042 14.2188 2.7371 14.2188H3.6746C3.74335 14.2188 3.79804 14.1641 3.7996 14.0969C3.83085 12.8906 4.31522 11.7609 5.17147 10.9047C6.05741 10.0188 7.23397 9.53125 8.4871 9.53125C9.74022 9.53125 10.9168 10.0188 11.8027 10.9047C12.659 11.7609 13.1433 12.8906 13.1746 14.0969C13.1762 14.1656 13.2308 14.2188 13.2996 14.2188H14.2371C14.2538 14.2188 14.2703 14.2154 14.2857 14.2089C14.301 14.2025 14.315 14.193 14.3266 14.181C14.3383 14.1691 14.3474 14.1549 14.3535 14.1394C14.3596 14.1239 14.3625 14.1073 14.3621 14.0906C14.3465 13.3437 14.1918 12.6172 13.9012 11.9312V11.9312ZM8.4871 8.34375C7.76991 8.34375 7.09491 8.06406 6.5871 7.55625C6.07929 7.04844 5.7996 6.37344 5.7996 5.65625C5.7996 4.93906 6.07929 4.26406 6.5871 3.75625C7.09491 3.24844 7.76991 2.96875 8.4871 2.96875C9.20429 2.96875 9.87929 3.24844 10.3871 3.75625C10.8949 4.26406 11.1746 4.93906 11.1746 5.65625C11.1746 6.37344 10.8949 7.04844 10.3871 7.55625C9.87929 8.06406 9.20429 8.34375 8.4871 8.34375Z" fill="white"/>
</svg>
