<svg width="36" height="21" viewBox="0 0 36 21" fill="none" xmlns="http://www.w3.org/2000/svg">
<g id="Group 3">
<path id="Vector" d="M17.6378 20.6339H19.7324C19.7324 20.6339 20.3656 20.5638 20.6876 20.2154C20.9856 19.8955 20.9746 19.2952 20.9746 19.2952C20.9746 19.2952 20.933 16.4843 22.2388 16.0702C23.5249 15.6627 25.1768 18.7869 26.9274 19.9897C28.2507 20.899 29.2563 20.6996 29.2563 20.6996L33.9384 20.6339C33.9384 20.6339 36.3878 20.4827 35.2266 18.5569C35.1324 18.3991 34.5496 17.1328 31.7452 14.53C28.8094 11.8044 29.2038 12.247 32.7399 7.53431C34.8936 4.66419 35.7546 2.91145 35.4852 2.16215C35.2288 1.44791 33.6448 1.63633 33.6448 1.63633L28.3778 1.667C28.3778 1.667 27.9878 1.61442 27.6964 1.7875C27.4138 1.95839 27.2319 2.35276 27.2319 2.35276C27.2319 2.35276 26.3972 4.57436 25.2842 6.46294C22.9377 10.4482 21.9978 10.6586 21.6144 10.411C20.7227 9.83479 20.9461 8.093 20.9461 6.85731C20.9461 2.9947 21.5311 1.38437 19.8047 0.968091C19.2307 0.830063 18.81 0.738044 17.3443 0.722707C15.4644 0.702989 13.8716 0.72928 12.9712 1.16966C12.3708 1.46324 11.9086 2.11833 12.1912 2.15558C12.5396 2.20159 13.3283 2.3681 13.7468 2.93774C14.2879 3.6717 14.2682 5.32366 14.2682 5.32366C14.2682 5.32366 14.5793 9.86984 13.543 10.4351C12.8309 10.8229 11.856 10.032 9.76364 6.41474C8.69228 4.56341 7.88163 2.51489 7.88163 2.51489C7.88163 2.51489 7.72608 2.13367 7.44783 1.92991C7.11043 1.68233 6.63719 1.60346 6.63719 1.60346L1.62872 1.63413C1.62872 1.63413 0.87723 1.65604 0.601173 1.98249C0.355789 2.27389 0.581454 2.8742 0.581454 2.8742C0.581454 2.8742 4.50322 12.0476 8.94204 16.6727C13.015 20.9121 17.6378 20.6339 17.6378 20.6339Z" fill="#1E88E5"/>
</g>
</svg>
